# MagicaVoxel @ Ephtracy

# group
o 

# material
mtllib grass.mtl
usemtl palette

# normals
vn -1 0 0
vn 1 0 0
vn 0 0 1
vn 0 0 -1
vn 0 -1 0
vn 0 1 0

# texcoords
vt 0.744141 0.5
vt 0.748047 0.5
vt 0.767578 0.5
vt 0.771484 0.5

# verts
v -0.5 0 -0.9
v -0.5 0 -1
v -0.5 0.3 -0.9
v -0.5 0.3 -1
v -0.5 0.4 -0.9
v -0.5 0.4 -1
v -0.3 0 -0.4
v -0.3 0 -0.5
v -0.3 0.4 -0.4
v -0.3 0.4 -0.5
v -0.3 0.6 -0.4
v -0.3 0.6 -0.5
v -0.2 0 -0.7
v -0.2 0 -0.8
v -0.2 0.2 -0.7
v -0.2 0.2 -0.8
v -0.1 0 -0.2
v -0.1 0 -0.3
v -0.1 0.3 -0.2
v -0.1 0.3 -0.3
v -0.1 0.5 -0.2
v -0.1 0.5 -0.3
v 0 0 -0.6
v 0 0 -0.7
v 0 0.6 -0.6
v 0 0.6 -0.7
v 0 1 -0.6
v 0 1 -0.7
v 0.1 0 -0.4
v 0.1 0 -0.5
v 0.1 0.5 -0.4
v 0.1 0.5 -0.5
v 0.1 0.7 -0.4
v 0.1 0.7 -0.5
v 0.2 0 0
v 0.2 0 -0.1
v 0.2 0.4 0
v 0.2 0.4 -0.1
v 0.2 0.6 0
v 0.2 0.6 -0.1
v 0.3 0 -0.3
v 0.3 0 -0.4
v 0.3 0.3 -0.3
v 0.3 0.3 -0.4
v 0.3 0.4 -0.3
v 0.3 0.4 -0.4
v 0.4 0 -0.7
v 0.4 0 -0.8
v 0.4 0.1 -0.7
v 0.4 0.1 -0.8
v 0.4 0.2 -0.7
v 0.4 0.2 -0.8
v -0.4 0 -0.9
v -0.4 0 -1
v -0.4 0.3 -0.9
v -0.4 0.3 -1
v -0.4 0.4 -0.9
v -0.4 0.4 -1
v -0.2 0 -0.4
v -0.2 0 -0.5
v -0.2 0.4 -0.4
v -0.2 0.4 -0.5
v -0.2 0.6 -0.4
v -0.2 0.6 -0.5
v -0.1 0 -0.7
v -0.1 0 -0.8
v -0.1 0.2 -0.7
v -0.1 0.2 -0.8
v 0 0 -0.2
v 0 0 -0.3
v 0 0.3 -0.2
v 0 0.3 -0.3
v 0 0.5 -0.2
v 0 0.5 -0.3
v 0.1 0 -0.6
v 0.1 0 -0.7
v 0.1 0.6 -0.6
v 0.1 0.6 -0.7
v 0.1 1 -0.6
v 0.1 1 -0.7
v 0.2 0 -0.4
v 0.2 0 -0.5
v 0.2 0.5 -0.4
v 0.2 0.5 -0.5
v 0.2 0.7 -0.4
v 0.2 0.7 -0.5
v 0.3 0 0
v 0.3 0 -0.1
v 0.3 0.4 0
v 0.3 0.4 -0.1
v 0.3 0.6 0
v 0.3 0.6 -0.1
v 0.4 0 -0.3
v 0.4 0 -0.4
v 0.4 0.3 -0.3
v 0.4 0.3 -0.4
v 0.4 0.4 -0.3
v 0.4 0.4 -0.4
v 0.5 0 -0.7
v 0.5 0 -0.8
v 0.5 0.1 -0.7
v 0.5 0.1 -0.8
v 0.5 0.2 -0.7
v 0.5 0.2 -0.8
v 0.2 0 0
v 0.2 0.4 0
v 0.2 0.6 0
v 0.3 0 0
v 0.3 0.4 0
v 0.3 0.6 0
v -0.1 0 -0.2
v -0.1 0.3 -0.2
v -0.1 0.5 -0.2
v 0 0 -0.2
v 0 0.3 -0.2
v 0 0.5 -0.2
v 0.3 0 -0.3
v 0.3 0.3 -0.3
v 0.3 0.4 -0.3
v 0.4 0 -0.3
v 0.4 0.3 -0.3
v 0.4 0.4 -0.3
v -0.3 0 -0.4
v -0.3 0.4 -0.4
v -0.3 0.6 -0.4
v -0.2 0 -0.4
v -0.2 0.4 -0.4
v -0.2 0.6 -0.4
v 0.1 0 -0.4
v 0.1 0.5 -0.4
v 0.1 0.7 -0.4
v 0.2 0 -0.4
v 0.2 0.5 -0.4
v 0.2 0.7 -0.4
v 0 0 -0.6
v 0 0.6 -0.6
v 0 1 -0.6
v 0.1 0 -0.6
v 0.1 0.6 -0.6
v 0.1 1 -0.6
v -0.2 0 -0.7
v -0.2 0.2 -0.7
v -0.1 0 -0.7
v -0.1 0.2 -0.7
v 0.4 0 -0.7
v 0.4 0.1 -0.7
v 0.4 0.2 -0.7
v 0.5 0 -0.7
v 0.5 0.1 -0.7
v 0.5 0.2 -0.7
v -0.5 0 -0.9
v -0.5 0.3 -0.9
v -0.5 0.4 -0.9
v -0.4 0 -0.9
v -0.4 0.3 -0.9
v -0.4 0.4 -0.9
v 0.2 0 -0.1
v 0.2 0.4 -0.1
v 0.2 0.6 -0.1
v 0.3 0 -0.1
v 0.3 0.4 -0.1
v 0.3 0.6 -0.1
v -0.1 0 -0.3
v -0.1 0.3 -0.3
v -0.1 0.5 -0.3
v 0 0 -0.3
v 0 0.3 -0.3
v 0 0.5 -0.3
v 0.3 0 -0.4
v 0.3 0.3 -0.4
v 0.3 0.4 -0.4
v 0.4 0 -0.4
v 0.4 0.3 -0.4
v 0.4 0.4 -0.4
v -0.3 0 -0.5
v -0.3 0.4 -0.5
v -0.3 0.6 -0.5
v -0.2 0 -0.5
v -0.2 0.4 -0.5
v -0.2 0.6 -0.5
v 0.1 0 -0.5
v 0.1 0.5 -0.5
v 0.1 0.7 -0.5
v 0.2 0 -0.5
v 0.2 0.5 -0.5
v 0.2 0.7 -0.5
v 0 0 -0.7
v 0 0.6 -0.7
v 0 1 -0.7
v 0.1 0 -0.7
v 0.1 0.6 -0.7
v 0.1 1 -0.7
v -0.2 0 -0.8
v -0.2 0.2 -0.8
v -0.1 0 -0.8
v -0.1 0.2 -0.8
v 0.4 0 -0.8
v 0.4 0.1 -0.8
v 0.4 0.2 -0.8
v 0.5 0 -0.8
v 0.5 0.1 -0.8
v 0.5 0.2 -0.8
v -0.5 0 -1
v -0.5 0.3 -1
v -0.5 0.4 -1
v -0.4 0 -1
v -0.4 0.3 -1
v -0.4 0.4 -1
v 0.2 0 0
v 0.3 0 0
v 0.2 0 -0.1
v 0.3 0 -0.1
v -0.1 0 -0.2
v 0 0 -0.2
v -0.1 0 -0.3
v 0 0 -0.3
v 0.3 0 -0.3
v 0.4 0 -0.3
v -0.3 0 -0.4
v -0.2 0 -0.4
v 0.1 0 -0.4
v 0.2 0 -0.4
v 0.3 0 -0.4
v 0.4 0 -0.4
v -0.3 0 -0.5
v -0.2 0 -0.5
v 0.1 0 -0.5
v 0.2 0 -0.5
v 0 0 -0.6
v 0.1 0 -0.6
v -0.2 0 -0.7
v -0.1 0 -0.7
v 0 0 -0.7
v 0.1 0 -0.7
v 0.4 0 -0.7
v 0.5 0 -0.7
v -0.2 0 -0.8
v -0.1 0 -0.8
v 0.4 0 -0.8
v 0.5 0 -0.8
v -0.5 0 -0.9
v -0.4 0 -0.9
v -0.5 0 -1
v -0.4 0 -1
v -0.2 0.2 -0.7
v -0.1 0.2 -0.7
v 0.4 0.2 -0.7
v 0.5 0.2 -0.7
v -0.2 0.2 -0.8
v -0.1 0.2 -0.8
v 0.4 0.2 -0.8
v 0.5 0.2 -0.8
v 0.3 0.4 -0.3
v 0.4 0.4 -0.3
v 0.3 0.4 -0.4
v 0.4 0.4 -0.4
v -0.5 0.4 -0.9
v -0.4 0.4 -0.9
v -0.5 0.4 -1
v -0.4 0.4 -1
v -0.1 0.5 -0.2
v 0 0.5 -0.2
v -0.1 0.5 -0.3
v 0 0.5 -0.3
v 0.2 0.6 0
v 0.3 0.6 0
v 0.2 0.6 -0.1
v 0.3 0.6 -0.1
v -0.3 0.6 -0.4
v -0.2 0.6 -0.4
v -0.3 0.6 -0.5
v -0.2 0.6 -0.5
v 0.1 0.7 -0.4
v 0.2 0.7 -0.4
v 0.1 0.7 -0.5
v 0.2 0.7 -0.5
v 0 1 -0.6
v 0.1 1 -0.6
v 0 1 -0.7
v 0.1 1 -0.7

# faces
f 3/1/1 2/1/1 1/1/1
f 4/1/1 2/1/1 3/1/1
f 5/2/1 4/2/1 3/2/1
f 6/2/1 4/2/1 5/2/1
f 9/1/1 8/1/1 7/1/1
f 10/1/1 8/1/1 9/1/1
f 11/2/1 10/2/1 9/2/1
f 12/2/1 10/2/1 11/2/1
f 15/1/1 14/1/1 13/1/1
f 16/1/1 14/1/1 15/1/1
f 19/4/1 18/4/1 17/4/1
f 20/4/1 18/4/1 19/4/1
f 21/2/1 20/2/1 19/2/1
f 22/2/1 20/2/1 21/2/1
f 25/3/1 24/3/1 23/3/1
f 26/3/1 24/3/1 25/3/1
f 27/4/1 26/4/1 25/4/1
f 28/4/1 26/4/1 27/4/1
f 31/4/1 30/4/1 29/4/1
f 32/4/1 30/4/1 31/4/1
f 33/2/1 32/2/1 31/2/1
f 34/2/1 32/2/1 33/2/1
f 37/1/1 36/1/1 35/1/1
f 38/1/1 36/1/1 37/1/1
f 39/2/1 38/2/1 37/2/1
f 40/2/1 38/2/1 39/2/1
f 43/4/1 42/4/1 41/4/1
f 44/4/1 42/4/1 43/4/1
f 45/2/1 44/2/1 43/2/1
f 46/2/1 44/2/1 45/2/1
f 49/1/1 48/1/1 47/1/1
f 50/1/1 48/1/1 49/1/1
f 51/4/1 50/4/1 49/4/1
f 52/4/1 50/4/1 51/4/1
f 53/1/2 54/1/2 55/1/2
f 55/1/2 54/1/2 56/1/2
f 55/2/2 56/2/2 57/2/2
f 57/2/2 56/2/2 58/2/2
f 59/1/2 60/1/2 61/1/2
f 61/1/2 60/1/2 62/1/2
f 61/2/2 62/2/2 63/2/2
f 63/2/2 62/2/2 64/2/2
f 65/1/2 66/1/2 67/1/2
f 67/1/2 66/1/2 68/1/2
f 69/4/2 70/4/2 71/4/2
f 71/4/2 70/4/2 72/4/2
f 71/2/2 72/2/2 73/2/2
f 73/2/2 72/2/2 74/2/2
f 75/3/2 76/3/2 77/3/2
f 77/3/2 76/3/2 78/3/2
f 77/4/2 78/4/2 79/4/2
f 79/4/2 78/4/2 80/4/2
f 81/4/2 82/4/2 83/4/2
f 83/4/2 82/4/2 84/4/2
f 83/2/2 84/2/2 85/2/2
f 85/2/2 84/2/2 86/2/2
f 87/1/2 88/1/2 89/1/2
f 89/1/2 88/1/2 90/1/2
f 89/2/2 90/2/2 91/2/2
f 91/2/2 90/2/2 92/2/2
f 93/4/2 94/4/2 95/4/2
f 95/4/2 94/4/2 96/4/2
f 95/2/2 96/2/2 97/2/2
f 97/2/2 96/2/2 98/2/2
f 99/1/2 100/1/2 101/1/2
f 101/1/2 100/1/2 102/1/2
f 101/4/2 102/4/2 103/4/2
f 103/4/2 102/4/2 104/4/2
f 108/1/3 106/1/3 105/1/3
f 109/2/3 107/2/3 106/2/3
f 109/1/3 106/1/3 108/1/3
f 110/2/3 107/2/3 109/2/3
f 114/4/3 112/4/3 111/4/3
f 115/2/3 113/2/3 112/2/3
f 115/4/3 112/4/3 114/4/3
f 116/2/3 113/2/3 115/2/3
f 120/4/3 118/4/3 117/4/3
f 121/2/3 119/2/3 118/2/3
f 121/4/3 118/4/3 120/4/3
f 122/2/3 119/2/3 121/2/3
f 126/1/3 124/1/3 123/1/3
f 127/2/3 125/2/3 124/2/3
f 127/1/3 124/1/3 126/1/3
f 128/2/3 125/2/3 127/2/3
f 132/4/3 130/4/3 129/4/3
f 133/2/3 131/2/3 130/2/3
f 133/4/3 130/4/3 132/4/3
f 134/2/3 131/2/3 133/2/3
f 138/3/3 136/3/3 135/3/3
f 139/4/3 137/4/3 136/4/3
f 139/3/3 136/3/3 138/3/3
f 140/4/3 137/4/3 139/4/3
f 143/1/3 142/1/3 141/1/3
f 144/1/3 142/1/3 143/1/3
f 148/1/3 146/1/3 145/1/3
f 149/4/3 147/4/3 146/4/3
f 149/1/3 146/1/3 148/1/3
f 150/4/3 147/4/3 149/4/3
f 154/1/3 152/1/3 151/1/3
f 155/2/3 153/2/3 152/2/3
f 155/1/3 152/1/3 154/1/3
f 156/2/3 153/2/3 155/2/3
f 157/1/4 158/1/4 160/1/4
f 158/2/4 159/2/4 161/2/4
f 160/1/4 158/1/4 161/1/4
f 161/2/4 159/2/4 162/2/4
f 163/4/4 164/4/4 166/4/4
f 164/2/4 165/2/4 167/2/4
f 166/4/4 164/4/4 167/4/4
f 167/2/4 165/2/4 168/2/4
f 169/4/4 170/4/4 172/4/4
f 170/2/4 171/2/4 173/2/4
f 172/4/4 170/4/4 173/4/4
f 173/2/4 171/2/4 174/2/4
f 175/1/4 176/1/4 178/1/4
f 176/2/4 177/2/4 179/2/4
f 178/1/4 176/1/4 179/1/4
f 179/2/4 177/2/4 180/2/4
f 181/4/4 182/4/4 184/4/4
f 182/2/4 183/2/4 185/2/4
f 184/4/4 182/4/4 185/4/4
f 185/2/4 183/2/4 186/2/4
f 187/3/4 188/3/4 190/3/4
f 188/4/4 189/4/4 191/4/4
f 190/3/4 188/3/4 191/3/4
f 191/4/4 189/4/4 192/4/4
f 193/1/4 194/1/4 195/1/4
f 195/1/4 194/1/4 196/1/4
f 197/1/4 198/1/4 200/1/4
f 198/4/4 199/4/4 201/4/4
f 200/1/4 198/1/4 201/1/4
f 201/4/4 199/4/4 202/4/4
f 203/1/4 204/1/4 206/1/4
f 204/2/4 205/2/4 207/2/4
f 206/1/4 204/1/4 207/1/4
f 207/2/4 205/2/4 208/2/4
f 211/1/5 210/1/5 209/1/5
f 212/1/5 210/1/5 211/1/5
f 215/4/5 214/4/5 213/4/5
f 216/4/5 214/4/5 215/4/5
f 223/4/5 218/4/5 217/4/5
f 224/4/5 218/4/5 223/4/5
f 225/1/5 220/1/5 219/1/5
f 226/1/5 220/1/5 225/1/5
f 227/4/5 222/4/5 221/4/5
f 228/4/5 222/4/5 227/4/5
f 233/3/5 230/3/5 229/3/5
f 234/3/5 230/3/5 233/3/5
f 237/1/5 232/1/5 231/1/5
f 238/1/5 232/1/5 237/1/5
f 239/1/5 236/1/5 235/1/5
f 240/1/5 236/1/5 239/1/5
f 243/1/5 242/1/5 241/1/5
f 244/1/5 242/1/5 243/1/5
f 245/1/6 246/1/6 249/1/6
f 249/1/6 246/1/6 250/1/6
f 247/4/6 248/4/6 251/4/6
f 251/4/6 248/4/6 252/4/6
f 253/2/6 254/2/6 255/2/6
f 255/2/6 254/2/6 256/2/6
f 257/2/6 258/2/6 259/2/6
f 259/2/6 258/2/6 260/2/6
f 261/2/6 262/2/6 263/2/6
f 263/2/6 262/2/6 264/2/6
f 265/2/6 266/2/6 267/2/6
f 267/2/6 266/2/6 268/2/6
f 269/2/6 270/2/6 271/2/6
f 271/2/6 270/2/6 272/2/6
f 273/2/6 274/2/6 275/2/6
f 275/2/6 274/2/6 276/2/6
f 277/4/6 278/4/6 279/4/6
f 279/4/6 278/4/6 280/4/6
