# MagicaVoxel @ Ephtracy

# group
o 

# material
mtllib Knight_Sword.mtl
usemtl palette

# normals
vn -1 0 0
vn 1 0 0
vn 0 0 1
vn 0 0 -1
vn 0 -1 0
vn 0 1 0

# texcoords
vt 0.0136719 0.5
vt 0.0214844 0.5
vt 0.853516 0.5
vt 0.857422 0.5
vt 0.861328 0.5
vt 0.865234 0.5
vt 0.962891 0.5

# verts
v -0.4 1.9 0.7
v -0.4 1.9 0.6
v -0.4 2.1 0.7
v -0.4 2.1 0.6
v -0.2 0.1 0.7
v -0.2 0.1 0.6
v -0.2 0.3 0.7
v -0.2 0.3 0.6
v -0.2 0.4 0.7
v -0.2 0.4 0.6
v -0.2 2 0.8
v -0.2 2 0.7
v -0.2 2 0.6
v -0.2 2 0.5
v -0.2 2.1 0.8
v -0.2 2.1 0.7
v -0.2 2.1 0.6
v -0.2 2.1 0.5
v -0.2 2.2 0.8
v -0.2 2.2 0.7
v -0.2 2.2 0.6
v -0.2 2.2 0.5
v -0.2 2.3 0.8
v -0.2 2.3 0.7
v -0.2 2.3 0.6
v -0.2 2.3 0.5
v -0.1 0 0.7
v -0.1 0 0.6
v -0.1 0.1 0.7
v -0.1 0.1 0.6
v -0.1 0.3 0.7
v -0.1 0.3 0.6
v -0.1 0.4 0.7
v -0.1 0.4 0.6
v -0.1 2.3 0.7
v -0.1 2.3 0.6
v -0.1 2.4 0.7
v -0.1 2.4 0.6
v -0.1 2.5 0.7
v -0.1 2.5 0.6
v -0.1 2.6 0.7
v -0.1 2.6 0.6
v 0.2 1.9 0.7
v 0.2 1.9 0.6
v 0.2 2 0.7
v 0.2 2 0.6
v -0.3 1.9 0.7
v -0.3 1.9 0.6
v -0.3 2 0.7
v -0.3 2 0.6
v 0 0 0.7
v 0 0 0.6
v 0 0.1 0.7
v 0 0.1 0.6
v 0 0.3 0.7
v 0 0.3 0.6
v 0 0.4 0.7
v 0 0.4 0.6
v 0 2.3 0.7
v 0 2.3 0.6
v 0 2.4 0.7
v 0 2.4 0.6
v 0 2.5 0.7
v 0 2.5 0.6
v 0 2.6 0.7
v 0 2.6 0.6
v 0.1 0.1 0.7
v 0.1 0.1 0.6
v 0.1 0.3 0.7
v 0.1 0.3 0.6
v 0.1 0.4 0.7
v 0.1 0.4 0.6
v 0.1 2 0.8
v 0.1 2 0.7
v 0.1 2 0.6
v 0.1 2 0.5
v 0.1 2.1 0.8
v 0.1 2.1 0.7
v 0.1 2.1 0.6
v 0.1 2.1 0.5
v 0.1 2.2 0.8
v 0.1 2.2 0.7
v 0.1 2.2 0.6
v 0.1 2.2 0.5
v 0.1 2.3 0.8
v 0.1 2.3 0.7
v 0.1 2.3 0.6
v 0.1 2.3 0.5
v 0.3 1.9 0.7
v 0.3 1.9 0.6
v 0.3 2.1 0.7
v 0.3 2.1 0.6
v -0.2 2 0.8
v -0.2 2.1 0.8
v -0.2 2.2 0.8
v -0.2 2.3 0.8
v -0.1 2 0.8
v -0.1 2.1 0.8
v -0.1 2.2 0.8
v -0.1 2.3 0.8
v 0 2 0.8
v 0 2.1 0.8
v 0 2.2 0.8
v 0 2.3 0.8
v 0.1 2 0.8
v 0.1 2.1 0.8
v 0.1 2.2 0.8
v 0.1 2.3 0.8
v -0.4 1.9 0.7
v -0.4 2.1 0.7
v -0.3 1.9 0.7
v -0.3 2 0.7
v -0.2 0.1 0.7
v -0.2 0.3 0.7
v -0.2 0.4 0.7
v -0.2 2 0.7
v -0.2 2.1 0.7
v -0.1 0 0.7
v -0.1 0.1 0.7
v -0.1 0.3 0.7
v -0.1 0.4 0.7
v -0.1 2 0.7
v -0.1 2.3 0.7
v -0.1 2.4 0.7
v -0.1 2.5 0.7
v -0.1 2.6 0.7
v 0 0 0.7
v 0 0.1 0.7
v 0 0.3 0.7
v 0 0.4 0.7
v 0 2 0.7
v 0 2.3 0.7
v 0 2.4 0.7
v 0 2.5 0.7
v 0 2.6 0.7
v 0.1 0.1 0.7
v 0.1 0.3 0.7
v 0.1 0.4 0.7
v 0.1 2 0.7
v 0.1 2.1 0.7
v 0.2 1.9 0.7
v 0.2 2 0.7
v 0.3 1.9 0.7
v 0.3 2.1 0.7
v -0.4 1.9 0.6
v -0.4 2.1 0.6
v -0.3 1.9 0.6
v -0.3 2 0.6
v -0.2 0.1 0.6
v -0.2 0.3 0.6
v -0.2 0.4 0.6
v -0.2 2 0.6
v -0.2 2.1 0.6
v -0.1 0 0.6
v -0.1 0.1 0.6
v -0.1 0.3 0.6
v -0.1 0.4 0.6
v -0.1 2 0.6
v -0.1 2.3 0.6
v -0.1 2.4 0.6
v -0.1 2.5 0.6
v -0.1 2.6 0.6
v 0 0 0.6
v 0 0.1 0.6
v 0 0.3 0.6
v 0 0.4 0.6
v 0 2 0.6
v 0 2.3 0.6
v 0 2.4 0.6
v 0 2.5 0.6
v 0 2.6 0.6
v 0.1 0.1 0.6
v 0.1 0.3 0.6
v 0.1 0.4 0.6
v 0.1 2 0.6
v 0.1 2.1 0.6
v 0.2 1.9 0.6
v 0.2 2 0.6
v 0.3 1.9 0.6
v 0.3 2.1 0.6
v -0.2 2 0.5
v -0.2 2.1 0.5
v -0.2 2.2 0.5
v -0.2 2.3 0.5
v -0.1 2 0.5
v -0.1 2.1 0.5
v -0.1 2.2 0.5
v -0.1 2.3 0.5
v 0 2 0.5
v 0 2.1 0.5
v 0 2.2 0.5
v 0 2.3 0.5
v 0.1 2 0.5
v 0.1 2.1 0.5
v 0.1 2.2 0.5
v 0.1 2.3 0.5
v -0.1 0 0.7
v 0 0 0.7
v -0.1 0 0.6
v 0 0 0.6
v -0.2 0.1 0.7
v -0.1 0.1 0.7
v 0 0.1 0.7
v 0.1 0.1 0.7
v -0.2 0.1 0.6
v -0.1 0.1 0.6
v 0 0.1 0.6
v 0.1 0.1 0.6
v -0.2 0.4 0.7
v -0.1 0.4 0.7
v 0 0.4 0.7
v 0.1 0.4 0.7
v -0.2 0.4 0.6
v -0.1 0.4 0.6
v 0 0.4 0.6
v 0.1 0.4 0.6
v -0.4 1.9 0.7
v -0.3 1.9 0.7
v 0.2 1.9 0.7
v 0.3 1.9 0.7
v -0.4 1.9 0.6
v -0.3 1.9 0.6
v 0.2 1.9 0.6
v 0.3 1.9 0.6
v -0.2 2 0.8
v -0.1 2 0.8
v 0 2 0.8
v 0.1 2 0.8
v -0.3 2 0.7
v -0.2 2 0.7
v -0.1 2 0.7
v 0 2 0.7
v 0.1 2 0.7
v 0.2 2 0.7
v -0.3 2 0.6
v -0.2 2 0.6
v -0.1 2 0.6
v 0 2 0.6
v 0.1 2 0.6
v 0.2 2 0.6
v -0.2 2 0.5
v -0.1 2 0.5
v 0 2 0.5
v 0.1 2 0.5
v -0.2 0.3 0.7
v -0.1 0.3 0.7
v 0 0.3 0.7
v 0.1 0.3 0.7
v -0.2 0.3 0.6
v -0.1 0.3 0.6
v 0 0.3 0.6
v 0.1 0.3 0.6
v -0.4 2.1 0.7
v -0.2 2.1 0.7
v 0.1 2.1 0.7
v 0.3 2.1 0.7
v -0.4 2.1 0.6
v -0.2 2.1 0.6
v 0.1 2.1 0.6
v 0.3 2.1 0.6
v -0.2 2.3 0.8
v -0.1 2.3 0.8
v 0 2.3 0.8
v 0.1 2.3 0.8
v -0.2 2.3 0.7
v -0.1 2.3 0.7
v 0 2.3 0.7
v 0.1 2.3 0.7
v -0.2 2.3 0.6
v -0.1 2.3 0.6
v 0 2.3 0.6
v 0.1 2.3 0.6
v -0.2 2.3 0.5
v -0.1 2.3 0.5
v 0 2.3 0.5
v 0.1 2.3 0.5
v -0.1 2.6 0.7
v 0 2.6 0.7
v -0.1 2.6 0.6
v 0 2.6 0.6

# faces
f 3/1/1 2/1/1 1/1/1
f 4/1/1 2/1/1 3/1/1
f 7/7/1 6/7/1 5/7/1
f 8/7/1 6/7/1 7/7/1
f 12/7/1 10/7/1 9/7/1
f 13/7/1 10/7/1 12/7/1
f 15/2/1 12/2/1 11/2/1
f 16/2/1 12/2/1 15/2/1
f 17/2/1 14/2/1 13/2/1
f 18/2/1 14/2/1 17/2/1
f 19/4/1 16/4/1 15/4/1
f 20/6/1 17/6/1 16/6/1
f 20/4/1 16/4/1 19/4/1
f 21/4/1 18/4/1 17/4/1
f 21/6/1 17/6/1 20/6/1
f 22/4/1 18/4/1 21/4/1
f 23/3/1 20/3/1 19/3/1
f 24/4/1 21/4/1 20/4/1
f 24/3/1 20/3/1 23/3/1
f 25/3/1 22/3/1 21/3/1
f 25/4/1 21/4/1 24/4/1
f 26/3/1 22/3/1 25/3/1
f 29/7/1 28/7/1 27/7/1
f 30/7/1 28/7/1 29/7/1
f 33/7/1 32/7/1 31/7/1
f 34/7/1 32/7/1 33/7/1
f 37/6/1 36/6/1 35/6/1
f 38/6/1 36/6/1 37/6/1
f 39/5/1 38/5/1 37/5/1
f 40/5/1 38/5/1 39/5/1
f 41/4/1 40/4/1 39/4/1
f 42/4/1 40/4/1 41/4/1
f 45/1/1 44/1/1 43/1/1
f 46/1/1 44/1/1 45/1/1
f 47/1/2 48/1/2 49/1/2
f 49/1/2 48/1/2 50/1/2
f 51/7/2 52/7/2 53/7/2
f 53/7/2 52/7/2 54/7/2
f 55/7/2 56/7/2 57/7/2
f 57/7/2 56/7/2 58/7/2
f 59/6/2 60/6/2 61/6/2
f 61/6/2 60/6/2 62/6/2
f 61/5/2 62/5/2 63/5/2
f 63/5/2 62/5/2 64/5/2
f 63/4/2 64/4/2 65/4/2
f 65/4/2 64/4/2 66/4/2
f 67/7/2 68/7/2 69/7/2
f 69/7/2 68/7/2 70/7/2
f 71/7/2 72/7/2 74/7/2
f 74/7/2 72/7/2 75/7/2
f 73/2/2 74/2/2 77/2/2
f 77/2/2 74/2/2 78/2/2
f 75/2/2 76/2/2 79/2/2
f 79/2/2 76/2/2 80/2/2
f 77/4/2 78/4/2 81/4/2
f 78/6/2 79/6/2 82/6/2
f 81/4/2 78/4/2 82/4/2
f 79/4/2 80/4/2 83/4/2
f 82/6/2 79/6/2 83/6/2
f 83/4/2 80/4/2 84/4/2
f 81/3/2 82/3/2 85/3/2
f 82/4/2 83/4/2 86/4/2
f 85/3/2 82/3/2 86/3/2
f 83/3/2 84/3/2 87/3/2
f 86/4/2 83/4/2 87/4/2
f 87/3/2 84/3/2 88/3/2
f 89/1/2 90/1/2 91/1/2
f 91/1/2 90/1/2 92/1/2
f 97/2/3 94/2/3 93/2/3
f 98/4/3 95/4/3 94/4/3
f 98/2/3 94/2/3 97/2/3
f 99/3/3 96/3/3 95/3/3
f 99/4/3 95/4/3 98/4/3
f 100/3/3 96/3/3 99/3/3
f 101/1/3 98/1/3 97/1/3
f 102/6/3 99/6/3 98/6/3
f 102/1/3 98/1/3 101/1/3
f 103/4/3 100/4/3 99/4/3
f 103/6/3 99/6/3 102/6/3
f 104/4/3 100/4/3 103/4/3
f 105/2/3 102/2/3 101/2/3
f 106/4/3 103/4/3 102/4/3
f 106/2/3 102/2/3 105/2/3
f 107/3/3 104/3/3 103/3/3
f 107/4/3 103/4/3 106/4/3
f 108/3/3 104/3/3 107/3/3
f 111/1/3 110/1/3 109/1/3
f 112/1/3 110/1/3 111/1/3
f 116/1/3 110/1/3 112/1/3
f 117/1/3 110/1/3 116/1/3
f 119/7/3 114/7/3 113/7/3
f 120/7/3 114/7/3 119/7/3
f 121/7/3 116/7/3 115/7/3
f 122/7/3 116/7/3 121/7/3
f 127/7/3 122/7/3 121/7/3
f 127/7/3 120/7/3 119/7/3
f 127/7/3 119/7/3 118/7/3
f 127/7/3 121/7/3 120/7/3
f 128/7/3 122/7/3 127/7/3
f 129/7/3 122/7/3 128/7/3
f 130/7/3 122/7/3 129/7/3
f 131/7/3 122/7/3 130/7/3
f 132/6/3 124/6/3 123/6/3
f 133/5/3 125/5/3 124/5/3
f 133/6/3 124/6/3 132/6/3
f 134/4/3 126/4/3 125/4/3
f 134/5/3 125/5/3 133/5/3
f 135/4/3 126/4/3 134/4/3
f 136/7/3 129/7/3 128/7/3
f 137/7/3 129/7/3 136/7/3
f 138/7/3 131/7/3 130/7/3
f 139/7/3 131/7/3 138/7/3
f 142/1/3 140/1/3 139/1/3
f 143/1/3 142/1/3 141/1/3
f 144/1/3 140/1/3 142/1/3
f 144/1/3 142/1/3 143/1/3
f 145/1/4 146/1/4 147/1/4
f 147/1/4 146/1/4 148/1/4
f 148/1/4 146/1/4 152/1/4
f 152/1/4 146/1/4 153/1/4
f 149/7/4 150/7/4 155/7/4
f 155/7/4 150/7/4 156/7/4
f 151/7/4 152/7/4 157/7/4
f 157/7/4 152/7/4 158/7/4
f 157/7/4 158/7/4 163/7/4
f 155/7/4 156/7/4 163/7/4
f 154/7/4 155/7/4 163/7/4
f 156/7/4 157/7/4 163/7/4
f 163/7/4 158/7/4 164/7/4
f 164/7/4 158/7/4 165/7/4
f 165/7/4 158/7/4 166/7/4
f 166/7/4 158/7/4 167/7/4
f 159/6/4 160/6/4 168/6/4
f 160/5/4 161/5/4 169/5/4
f 168/6/4 160/6/4 169/6/4
f 161/4/4 162/4/4 170/4/4
f 169/5/4 161/5/4 170/5/4
f 170/4/4 162/4/4 171/4/4
f 164/7/4 165/7/4 172/7/4
f 172/7/4 165/7/4 173/7/4
f 166/7/4 167/7/4 174/7/4
f 174/7/4 167/7/4 175/7/4
f 175/1/4 176/1/4 178/1/4
f 177/1/4 178/1/4 179/1/4
f 178/1/4 176/1/4 180/1/4
f 179/1/4 178/1/4 180/1/4
f 181/2/4 182/2/4 185/2/4
f 182/4/4 183/4/4 186/4/4
f 185/2/4 182/2/4 186/2/4
f 183/3/4 184/3/4 187/3/4
f 186/4/4 183/4/4 187/4/4
f 187/3/4 184/3/4 188/3/4
f 185/1/4 186/1/4 189/1/4
f 186/6/4 187/6/4 190/6/4
f 189/1/4 186/1/4 190/1/4
f 187/4/4 188/4/4 191/4/4
f 190/6/4 187/6/4 191/6/4
f 191/4/4 188/4/4 192/4/4
f 189/2/4 190/2/4 193/2/4
f 190/4/4 191/4/4 194/4/4
f 193/2/4 190/2/4 194/2/4
f 191/3/4 192/3/4 195/3/4
f 194/4/4 191/4/4 195/4/4
f 195/3/4 192/3/4 196/3/4
f 199/7/5 198/7/5 197/7/5
f 200/7/5 198/7/5 199/7/5
f 205/7/5 202/7/5 201/7/5
f 206/7/5 202/7/5 205/7/5
f 207/7/5 204/7/5 203/7/5
f 208/7/5 204/7/5 207/7/5
f 213/7/5 210/7/5 209/7/5
f 214/7/5 210/7/5 213/7/5
f 215/7/5 212/7/5 211/7/5
f 216/7/5 212/7/5 215/7/5
f 221/1/5 218/1/5 217/1/5
f 222/1/5 218/1/5 221/1/5
f 223/1/5 220/1/5 219/1/5
f 224/1/5 220/1/5 223/1/5
f 230/2/5 226/2/5 225/2/5
f 231/1/5 227/1/5 226/1/5
f 231/2/5 226/2/5 230/2/5
f 232/2/5 228/2/5 227/2/5
f 232/1/5 227/1/5 231/1/5
f 233/2/5 228/2/5 232/2/5
f 235/1/5 230/1/5 229/1/5
f 236/1/5 230/1/5 235/1/5
f 239/1/5 234/1/5 233/1/5
f 240/1/5 234/1/5 239/1/5
f 241/2/5 237/2/5 236/2/5
f 242/1/5 238/1/5 237/1/5
f 242/2/5 237/2/5 241/2/5
f 243/2/5 239/2/5 238/2/5
f 243/1/5 238/1/5 242/1/5
f 244/2/5 239/2/5 243/2/5
f 245/7/6 246/7/6 249/7/6
f 249/7/6 246/7/6 250/7/6
f 247/7/6 248/7/6 251/7/6
f 251/7/6 248/7/6 252/7/6
f 253/1/6 254/1/6 257/1/6
f 257/1/6 254/1/6 258/1/6
f 255/1/6 256/1/6 259/1/6
f 259/1/6 256/1/6 260/1/6
f 261/3/6 262/3/6 265/3/6
f 262/4/6 263/4/6 266/4/6
f 265/3/6 262/3/6 266/3/6
f 263/3/6 264/3/6 267/3/6
f 266/4/6 263/4/6 267/4/6
f 267/3/6 264/3/6 268/3/6
f 265/4/6 266/4/6 269/4/6
f 269/4/6 266/4/6 270/4/6
f 267/4/6 268/4/6 271/4/6
f 271/4/6 268/4/6 272/4/6
f 269/3/6 270/3/6 273/3/6
f 270/4/6 271/4/6 274/4/6
f 273/3/6 270/3/6 274/3/6
f 271/3/6 272/3/6 275/3/6
f 274/4/6 271/4/6 275/4/6
f 275/3/6 272/3/6 276/3/6
f 277/4/6 278/4/6 279/4/6
f 279/4/6 278/4/6 280/4/6
